{
  "accessors": [
    {
      "bufferView": 0,
      "componentType": 5126,
      "count": 2774,
      "type": "VEC3",
      "max": [
        0.13491590321063995,
        0.060217887163162231,
        0.13568133115768433
      ],
      "min": [
        -0.13506351411342621,
        0.0,
        -0.13462485373020172
      ]
    },
    {
      "bufferView": 1,
      "componentType": 5126,
      "count": 2774,
      "type": "VEC3",
      "max": [
        1.0,
        1.0,
        1.0
      ],
      "min": [
        -1.0,
        -1.0,
        -1.0
      ]
    },
    {
      "bufferView": 2,
      "componentType": 5126,
      "count": 2774,
      "type": "VEC4",
      "max": [
        1.0,
        0.28479817509651184,
        1.0,
        1.0
      ],
      "min": [
        -1.0,
        -1.0,
        -1.0,
        -1.0
      ]
    },
    {
      "bufferView": 3,
      "componentType": 5126,
      "count": 2774,
      "type": "VEC2",
      "max": [
        1.0,
        1.0
      ],
      "min": [
        0.0,
        0.0
      ]
    },
    {
      "bufferView": 4,
      "componentType": 5125,
      "count": 8736,
      "type": "SCALAR",
      "max": [
        2773.0
      ],
      "min": [
        0.0
      ]
    }
  ],
  "asset": {
    "generator": "Plattar UnityGLTF (2020.3.19f1)",
    "version": "2.0"
  },
  "buffers": [
    {
      "uri": "3dmodel.bin",
      "byteLength": 168096
    }
  ],
  "bufferViews": [
    {
      "buffer": 0,
      "byteLength": 33288
    },
    {
      "buffer": 0,
      "byteOffset": 33288,
      "byteLength": 33288
    },
    {
      "buffer": 0,
      "byteOffset": 66576,
      "byteLength": 44384
    },
    {
      "buffer": 0,
      "byteOffset": 110960,
      "byteLength": 22192
    },
    {
      "buffer": 0,
      "byteOffset": 133152,
      "byteLength": 34944
    }
  ],
  "materials": [
    {
      "pbrMetallicRoughness": {
        "baseColorFactor": [
          0.9063317,
          0.9063317,
          0.9063317,
          1.0
        ],
        "metallicFactor": 0.0
      },
      "name": "defaultMat"
    }
  ],
  "meshes": [
    {
      "primitives": [
        {
          "attributes": {
            "POSITION": 0,
            "NORMAL": 1,
            "TANGENT": 2,
            "TEXCOORD_0": 3
          },
          "indices": 4,
          "material": 0
        }
      ],
      "name": "default"
    }
  ],
  "nodes": [
    {
      "children": [
        1
      ],
      "rotation": [
        0.0,
        0.0,
        0.0,
        -1.0
      ],
      "scale": [
        0.28,
        0.28,
        0.28
      ],
      "translation": [
        -0.0755,
        1.1920929E-07,
        -0.00510000251
      ],
      "name": "3dmodel"
    },
    {
      "mesh": 0,
      "rotation": [
        0.0,
        0.0,
        0.0,
        -1.0
      ],
      "name": "default"
    }
  ],
  "scene": 0,
  "scenes": [
    {
      "nodes": [
        0
      ],
      "name": "3dmodel"
    }
  ]
}