{
  "accessors": [
    {
      "bufferView": 0,
      "componentType": 5126,
      "count": 16721,
      "type": "VEC3",
      "max": [
        0.013505051843822002,
        0.006979670375585556,
        0.010121350176632404
      ],
      "min": [
        -0.013284848071634769,
        -7.7396492997650057E-05,
        -0.010048605501651764
      ]
    },
    {
      "bufferView": 1,
      "componentType": 5126,
      "count": 16721,
      "type": "VEC3",
      "max": [
        1.0,
        0.99987435340881348,
        1.0
      ],
      "min": [
        -1.0,
        -1.0,
        -1.0
      ]
    },
    {
      "bufferView": 2,
      "componentType": 5126,
      "count": 16721,
      "type": "VEC4",
      "max": [
        1.0,
        1.0,
        1.0,
        1.0
      ],
      "min": [
        -1.0,
        -1.0,
        -1.0,
        -1.0
      ]
    },
    {
      "bufferView": 3,
      "componentType": 5126,
      "count": 16721,
      "type": "VEC2",
      "max": [
        12.4173002243042,
        2.1684200763702393
      ],
      "min": [
        -6.0137300491333008,
        -0.96682900190353394
      ]
    },
    {
      "bufferView": 4,
      "componentType": 5125,
      "count": 62106,
      "type": "SCALAR",
      "max": [
        16720.0
      ],
      "min": [
        0.0
      ]
    }
  ],
  "asset": {
    "generator": "Plattar UnityGLTF (2020.3.19f1)",
    "version": "2.0"
  },
  "buffers": [
    {
      "uri": "3dmodel.bin",
      "byteLength": 1051032
    }
  ],
  "bufferViews": [
    {
      "buffer": 0,
      "byteLength": 200652
    },
    {
      "buffer": 0,
      "byteOffset": 200652,
      "byteLength": 200652
    },
    {
      "buffer": 0,
      "byteOffset": 401304,
      "byteLength": 267536
    },
    {
      "buffer": 0,
      "byteOffset": 668840,
      "byteLength": 133768
    },
    {
      "buffer": 0,
      "byteOffset": 802608,
      "byteLength": 248424
    }
  ],
  "materials": [
    {
      "pbrMetallicRoughness": {
        "metallicFactor": 0.18799999356269836,
        "roughnessFactor": 0.27899998426437378
      },
      "name": "DryRockyDirt_StandardShader"
    }
  ],
  "meshes": [
    {
      "primitives": [
        {
          "attributes": {
            "POSITION": 0,
            "NORMAL": 1,
            "TANGENT": 2,
            "TEXCOORD_0": 3
          },
          "indices": 4,
          "material": 0
        }
      ],
      "name": "default"
    }
  ],
  "nodes": [
    {
      "children": [
        1
      ],
      "rotation": [
        0.0,
        0.0,
        0.0,
        -1.0
      ],
      "scale": [
        5.0,
        5.0,
        5.0
      ],
      "translation": [
        -0.0355,
        0.6804,
        0.0185
      ],
      "name": "3dmodel"
    },
    {
      "mesh": 0,
      "rotation": [
        0.0,
        0.0,
        0.0,
        -1.0
      ],
      "translation": [
        0.0,
        -0.1253,
        0.0
      ],
      "name": "default"
    }
  ],
  "scene": 0,
  "scenes": [
    {
      "nodes": [
        0
      ],
      "name": "3dmodel"
    }
  ]
}