{
  "accessors": [
    {
      "bufferView": 0,
      "componentType": 5126,
      "count": 3544,
      "type": "VEC3",
      "max": [
        0.06978946179151535,
        0.0739322155714035,
        0.06910521537065506
      ],
      "min": [
        -0.069629915058612823,
        0.00011963834549533203,
        -0.070307053625583649
      ]
    },
    {
      "bufferView": 1,
      "componentType": 5126,
      "count": 3544,
      "type": "VEC3",
      "max": [
        1.0,
        0.84914755821228027,
        1.0
      ],
      "min": [
        -1.0,
        -1.0,
        -1.0
      ]
    },
    {
      "bufferView": 2,
      "componentType": 5126,
      "count": 3544,
      "type": "VEC4",
      "max": [
        0.9999772310256958,
        0.99991774559021,
        0.98991173505783081,
        1.0
      ],
      "min": [
        -0.92761737108230591,
        -1.0,
        -0.99980610609054565,
        -1.0
      ]
    },
    {
      "bufferView": 3,
      "componentType": 5126,
      "count": 3544,
      "type": "VEC2",
      "max": [
        0.94995087385177612,
        0.99853515625
      ],
      "min": [
        0.0,
        0.0
      ]
    },
    {
      "bufferView": 4,
      "componentType": 5125,
      "count": 18060,
      "type": "SCALAR",
      "max": [
        3543.0
      ],
      "min": [
        0.0
      ]
    }
  ],
  "asset": {
    "generator": "Plattar UnityGLTF (2020.3.19f1)",
    "version": "2.0"
  },
  "buffers": [
    {
      "uri": "3dmodel.bin",
      "byteLength": 242352
    }
  ],
  "bufferViews": [
    {
      "buffer": 0,
      "byteLength": 42528
    },
    {
      "buffer": 0,
      "byteOffset": 42528,
      "byteLength": 42528
    },
    {
      "buffer": 0,
      "byteOffset": 85056,
      "byteLength": 56704
    },
    {
      "buffer": 0,
      "byteOffset": 141760,
      "byteLength": 28352
    },
    {
      "buffer": 0,
      "byteOffset": 170112,
      "byteLength": 72240
    }
  ],
  "materials": [
    {
      "pbrMetallicRoughness": {
        "baseColorFactor": [
          0.5943396,
          0.536027,
          0.536027,
          1.0
        ],
        "metallicFactor": 0.43000000715255737
      },
      "name": "New Material 1"
    }
  ],
  "meshes": [
    {
      "primitives": [
        {
          "attributes": {
            "POSITION": 0,
            "NORMAL": 1,
            "TANGENT": 2,
            "TEXCOORD_0": 3
          },
          "indices": 4,
          "material": 0
        }
      ],
      "name": "default"
    }
  ],
  "nodes": [
    {
      "children": [
        1
      ],
      "rotation": [
        0.0,
        0.0,
        0.0,
        -1.0
      ],
      "translation": [
        -0.001284197,
        0.0501098335,
        0.0487824678
      ],
      "name": "3dmodel"
    },
    {
      "mesh": 0,
      "rotation": [
        0.0,
        0.0,
        0.0,
        -1.0
      ],
      "scale": [
        1.2,
        1.3,
        1.2
      ],
      "translation": [
        0.0476,
        0.0,
        -0.0585
      ],
      "name": "default"
    }
  ],
  "scene": 0,
  "scenes": [
    {
      "nodes": [
        0
      ],
      "name": "3dmodel"
    }
  ]
}