{
  "extensionsUsed": [
    "KHR_texture_transform"
  ],
  "accessors": [
    {
      "bufferView": 0,
      "componentType": 5126,
      "count": 12555,
      "type": "VEC3",
      "max": [
        112.96511077880859,
        39.919338226318359,
        74.23699951171875
      ],
      "min": [
        -92.883636474609375,
        -0.91628760099411011,
        -139.32412719726563
      ]
    },
    {
      "bufferView": 1,
      "componentType": 5126,
      "count": 12555,
      "type": "VEC3",
      "max": [
        1.0,
        1.0,
        1.0
      ],
      "min": [
        -1.0,
        -1.0,
        -1.0
      ]
    },
    {
      "bufferView": 2,
      "componentType": 5126,
      "count": 12555,
      "type": "VEC4",
      "max": [
        1.0,
        1.0,
        1.0,
        1.0
      ],
      "min": [
        -1.0,
        -1.0,
        -1.0,
        -1.0
      ]
    },
    {
      "bufferView": 3,
      "componentType": 5126,
      "count": 12555,
      "type": "VEC2",
      "max": [
        0.99853515625,
        0.99853515625
      ],
      "min": [
        0.0,
        0.0
      ]
    },
    {
      "bufferView": 4,
      "componentType": 5125,
      "count": 60438,
      "type": "SCALAR",
      "max": [
        12554.0
      ],
      "min": [
        0.0
      ]
    }
  ],
  "asset": {
    "generator": "Plattar UnityGLTF (2020.3.19f1)",
    "version": "2.0"
  },
  "buffers": [
    {
      "uri": "3dmodel.bin",
      "byteLength": 844392
    }
  ],
  "bufferViews": [
    {
      "buffer": 0,
      "byteLength": 150660
    },
    {
      "buffer": 0,
      "byteOffset": 150660,
      "byteLength": 150660
    },
    {
      "buffer": 0,
      "byteOffset": 301320,
      "byteLength": 200880
    },
    {
      "buffer": 0,
      "byteOffset": 502200,
      "byteLength": 100440
    },
    {
      "buffer": 0,
      "byteOffset": 602640,
      "byteLength": 241752
    }
  ],
  "images": [
    {
      "uri": "Bricks red smooth normal.png",
      "name": "Bricks red smooth normal"
    },
    {
      "uri": "Bricks red smooth diffuse.png",
      "name": "Bricks red smooth diffuse"
    }
  ],
  "materials": [
    {
      "pbrMetallicRoughness": {
        "baseColorTexture": {
          "index": 1,
          "extensions": {
            "KHR_texture_transform": {
              "scale": [
                3.0,
                3.0
              ]
            }
          }
        },
        "metallicFactor": 0.0,
        "roughnessFactor": 0.5
      },
      "normalTexture": {
        "index": 0,
        "extensions": {
          "KHR_texture_transform": {
            "scale": [
              3.0,
              3.0
            ]
          }
        }
      },
      "name": "Bricks red smooth Mat"
    }
  ],
  "meshes": [
    {
      "primitives": [
        {
          "attributes": {
            "POSITION": 0,
            "NORMAL": 1,
            "TANGENT": 2,
            "TEXCOORD_0": 3
          },
          "indices": 4,
          "material": 0
        }
      ],
      "name": "default"
    }
  ],
  "nodes": [
    {
      "children": [
        1,
        4
      ],
      "rotation": [
        0.0,
        0.0,
        0.0,
        -1.0
      ],
      "translation": [
        -0.280686319,
        0.029042244,
        0.039797008
      ],
      "name": "3dmodel"
    },
    {
      "children": [
        2
      ],
      "rotation": [
        0.0,
        0.0,
        0.0,
        -1.0
      ],
      "scale": [
        0.1,
        0.1,
        0.1
      ],
      "translation": [
        0.6226863,
        0.15195778,
        0.156203
      ],
      "name": "finalHaus (1)"
    },
    {
      "children": [
        3
      ],
      "rotation": [
        0.0,
        0.0,
        0.0,
        -1.0
      ],
      "scale": [
        0.01,
        0.01,
        0.01
      ],
      "name": "haus"
    },
    {
      "mesh": 0,
      "rotation": [
        0.0,
        0.0,
        0.0,
        -1.0
      ],
      "name": "default"
    },
    {
      "children": [
        5
      ],
      "rotation": [
        0.0,
        0.0,
        0.0,
        -1.0
      ],
      "scale": [
        0.1,
        0.1,
        0.1
      ],
      "translation": [
        0.6226863,
        0.175957784,
        0.156203
      ],
      "name": "finalHaus"
    },
    {
      "children": [
        6
      ],
      "rotation": [
        0.0,
        0.0,
        0.0,
        -1.0
      ],
      "scale": [
        0.01,
        0.01,
        0.01
      ],
      "name": "haus"
    },
    {
      "mesh": 0,
      "rotation": [
        0.0,
        0.0,
        0.0,
        -1.0
      ],
      "name": "default"
    }
  ],
  "samplers": [
    {
      "minFilter": 9729
    },
    {
      "minFilter": 9987
    }
  ],
  "scene": 0,
  "scenes": [
    {
      "nodes": [
        0
      ],
      "name": "3dmodel"
    }
  ],
  "textures": [
    {
      "sampler": 0,
      "source": 0,
      "name": "Bricks red smooth normal"
    },
    {
      "sampler": 1,
      "source": 1,
      "name": "Bricks red smooth diffuse"
    }
  ]
}