{
  "accessors": [
    {
      "bufferView": 0,
      "componentType": 5126,
      "count": 1089,
      "type": "VEC3",
      "max": [
        30.0,
        3.6795122623443604,
        30.0
      ],
      "min": [
        -30.0,
        0.0,
        -30.0
      ]
    },
    {
      "bufferView": 1,
      "componentType": 5126,
      "count": 1089,
      "type": "VEC3",
      "max": [
        0.63775837421417236,
        1.0,
        0.51894783973693848
      ],
      "min": [
        -0.45421329140663147,
        0.76862442493438721,
        -0.51767092943191528
      ]
    },
    {
      "bufferView": 2,
      "componentType": 5126,
      "count": 1089,
      "type": "VEC4",
      "max": [
        0.0022534965537488461,
        0.52410364151000977,
        1.0,
        1.0
      ],
      "min": [
        -0.002303471090272069,
        -0.52745378017425537,
        0.84958374500274658,
        1.0
      ]
    },
    {
      "bufferView": 3,
      "componentType": 5126,
      "count": 1089,
      "type": "VEC2",
      "max": [
        0.99990004301071167,
        0.99990004301071167
      ],
      "min": [
        9.998000314226374E-05,
        0.00010007619857788086
      ]
    },
    {
      "bufferView": 4,
      "componentType": 5123,
      "count": 6144,
      "type": "SCALAR",
      "max": [
        1088.0
      ],
      "min": [
        0.0
      ]
    },
    {
      "bufferView": 5,
      "componentType": 5126,
      "count": 29707,
      "type": "VEC3",
      "max": [
        17.767223358154297,
        6.5625,
        16.16912841796875
      ],
      "min": [
        -17.773643493652344,
        0.0,
        -16.130970001220703
      ]
    },
    {
      "bufferView": 6,
      "componentType": 5126,
      "count": 29707,
      "type": "VEC3",
      "max": [
        0.99999916553497314,
        1.0,
        0.99999856948852539
      ],
      "min": [
        -0.99999856948852539,
        -1.0,
        -0.99999856948852539
      ]
    },
    {
      "bufferView": 7,
      "componentType": 5126,
      "count": 29707,
      "type": "VEC4",
      "max": [
        0.99999856948852539,
        1.0,
        0.99999856948852539,
        1.0
      ],
      "min": [
        -0.99999856948852539,
        -1.0,
        -0.99999856948852539,
        -1.0
      ]
    },
    {
      "bufferView": 8,
      "componentType": 5126,
      "count": 29707,
      "type": "VEC2",
      "max": [
        0.99853515625,
        1.0
      ],
      "min": [
        0.0,
        0.00146484375
      ]
    },
    {
      "bufferView": 9,
      "componentType": 5123,
      "count": 143484,
      "type": "SCALAR",
      "max": [
        29706.0
      ],
      "min": [
        0.0
      ]
    },
    {
      "bufferView": 10,
      "componentType": 5126,
      "count": 535,
      "type": "VEC3",
      "max": [
        3.0000002384185791,
        3.5813689231872559,
        2.7716391086578369
      ],
      "min": [
        -3.0,
        0.0,
        -3.0
      ]
    },
    {
      "bufferView": 11,
      "componentType": 5126,
      "count": 535,
      "type": "VEC3",
      "max": [
        0.88059908151626587,
        1.0,
        0.90782076120376587
      ],
      "min": [
        -0.88059908151626587,
        -1.0,
        -0.88059920072555542
      ]
    },
    {
      "bufferView": 12,
      "componentType": 5126,
      "count": 535,
      "type": "VEC4",
      "max": [
        1.0,
        1.0,
        0.98078536987304688,
        1.0
      ],
      "min": [
        -1.0,
        -0.85522502660751343,
        -0.98078536987304688,
        -1.0
      ]
    },
    {
      "bufferView": 13,
      "componentType": 5126,
      "count": 535,
      "type": "VEC2",
      "max": [
        0.98058235645294189,
        0.73548376560211182
      ],
      "min": [
        0.0089545296505093575,
        0.031585812568664551
      ]
    },
    {
      "bufferView": 14,
      "componentType": 5123,
      "count": 1038,
      "type": "SCALAR",
      "max": [
        534.0
      ],
      "min": [
        0.0
      ]
    }
  ],
  "asset": {
    "version": "2.0"
  },
  "buffers": [
    {
      "uri": "CarelNguy.bin",
      "byteLength": 1805220
    }
  ],
  "bufferViews": [
    {
      "buffer": 0,
      "byteLength": 13068
    },
    {
      "buffer": 0,
      "byteOffset": 13068,
      "byteLength": 13068
    },
    {
      "buffer": 0,
      "byteOffset": 26136,
      "byteLength": 17424
    },
    {
      "buffer": 0,
      "byteOffset": 43560,
      "byteLength": 8712
    },
    {
      "buffer": 0,
      "byteOffset": 52272,
      "byteLength": 12288
    },
    {
      "buffer": 0,
      "byteOffset": 64560,
      "byteLength": 356484
    },
    {
      "buffer": 0,
      "byteOffset": 421044,
      "byteLength": 356484
    },
    {
      "buffer": 0,
      "byteOffset": 777528,
      "byteLength": 475312
    },
    {
      "buffer": 0,
      "byteOffset": 1252840,
      "byteLength": 237656
    },
    {
      "buffer": 0,
      "byteOffset": 1490496,
      "byteLength": 286968
    },
    {
      "buffer": 0,
      "byteOffset": 1777464,
      "byteLength": 6420
    },
    {
      "buffer": 0,
      "byteOffset": 1783884,
      "byteLength": 6420
    },
    {
      "buffer": 0,
      "byteOffset": 1790304,
      "byteLength": 8560
    },
    {
      "buffer": 0,
      "byteOffset": 1798864,
      "byteLength": 4280
    },
    {
      "buffer": 0,
      "byteOffset": 1803144,
      "byteLength": 2076
    }
  ],
  "images": [
    {
      "uri": "GroundTexture.png",
      "name": "GroundTexture"
    },
    {
      "uri": "MetalPlates_Normal06.png",
      "name": "MetalPlates_Normal06"
    },
    {
      "uri": "MetalPlates_Metalness.png",
      "name": "MetalPlates_Metalness"
    },
    {
      "uri": "PodBaseTexture.png",
      "name": "PodBaseTexture"
    }
  ],
  "materials": [
    {
      "pbrMetallicRoughness": {
        "baseColorTexture": {
          "index": 0
        },
        "metallicFactor": 0.0
      },
      "name": "GroundMaterial"
    },
    {
      "pbrMetallicRoughness": {
        "baseColorFactor": [
          1.0,
          0.687779963,
          0.5716981,
          1.0
        ],
        "roughnessFactor": 0.25,
        "metallicRoughnessTexture": {
          "index": 2
        }
      },
      "normalTexture": {
        "scale": 1.25,
        "index": 1
      },
      "emissiveFactor": [
        0.0,
        0.0,
        0.0
      ],
      "name": "MetalPlates_06"
    },
    {
      "pbrMetallicRoughness": {
        "baseColorTexture": {
          "index": 3
        },
        "metallicFactor": 0.45800000429153442,
        "roughnessFactor": 0.5
      },
      "name": "PodMaterial"
    }
  ],
  "meshes": [
    {
      "primitives": [
        {
          "attributes": {
            "POSITION": 0,
            "NORMAL": 1,
            "TANGENT": 2,
            "TEXCOORD_0": 3
          },
          "indices": 4,
          "material": 0
        }
      ],
      "name": "terrain"
    },
    {
      "primitives": [
        {
          "attributes": {
            "POSITION": 5,
            "NORMAL": 6,
            "TANGENT": 7,
            "TEXCOORD_0": 8
          },
          "indices": 9,
          "material": 1
        }
      ],
      "name": "default"
    },
    {
      "primitives": [
        {
          "attributes": {
            "POSITION": 10,
            "NORMAL": 11,
            "TANGENT": 12,
            "TEXCOORD_0": 13
          },
          "indices": 14,
          "material": 2
        }
      ],
      "name": "Pod (1)"
    }
  ],
  "nodes": [
    {
      "children": [
        1,
        2,
        4
      ],
      "rotation": [
        0.0,
        0.0,
        0.0,
        -1.0
      ],
      "scale": [
        0.05,
        0.05,
        0.05
      ],
      "translation": [
        0.004571244,
        0.0108887572,
        0.02044499
      ],
      "name": "CarelNguy"
    },
    {
      "mesh": 0,
      "rotation": [
        0.0,
        0.0,
        0.0,
        -1.0
      ],
      "scale": [
        0.21,
        0.9,
        0.23
      ],
      "name": "terrain"
    },
    {
      "children": [
        3
      ],
      "rotation": [
        0.0,
        0.0,
        0.0,
        -1.0
      ],
      "scale": [
        0.19,
        0.19,
        0.19
      ],
      "translation": [
        0.0,
        -2.56000018,
        0.0
      ],
      "name": "3dmodel"
    },
    {
      "mesh": 1,
      "rotation": [
        0.0,
        0.0,
        0.0,
        -1.0
      ],
      "translation": [
        0.0,
        13.3,
        0.0
      ],
      "name": "default"
    },
    {
      "children": [
        5,
        6,
        7,
        8,
        9
      ],
      "rotation": [
        0.0,
        0.0,
        0.0,
        -1.0
      ],
      "name": "environment"
    },
    {
      "mesh": 2,
      "rotation": [
        0.0,
        0.0,
        0.0,
        -1.0
      ],
      "scale": [
        0.200000018,
        0.200000018,
        0.200000018
      ],
      "translation": [
        -1.90145123,
        0.245859891,
        3.70090032
      ],
      "name": "Pod (1)"
    },
    {
      "mesh": 2,
      "rotation": [
        0.0,
        0.0,
        0.0,
        -1.0
      ],
      "scale": [
        0.200000018,
        0.200000018,
        0.200000018
      ],
      "translation": [
        -1.19142485,
        0.245859891,
        4.43110037
      ],
      "name": "Pod (2)"
    },
    {
      "mesh": 2,
      "rotation": [
        0.0,
        0.0,
        0.0,
        -1.0
      ],
      "scale": [
        0.200000018,
        0.200000018,
        0.200000018
      ],
      "translation": [
        -1.951425,
        0.245859891,
        -3.76889968
      ],
      "name": "Pod (3)"
    },
    {
      "mesh": 2,
      "rotation": [
        0.0,
        0.0,
        0.0,
        -1.0
      ],
      "scale": [
        0.200000018,
        0.200000018,
        0.200000018
      ],
      "translation": [
        2.254575,
        0.00422485173,
        -4.2529
      ],
      "name": "Pod (4)"
    },
    {
      "mesh": 2,
      "rotation": [
        0.0,
        0.0,
        0.0,
        -1.0
      ],
      "scale": [
        0.200000018,
        0.200000018,
        0.200000018
      ],
      "translation": [
        2.848575,
        0.00422485173,
        -3.14889956
      ],
      "name": "Pod (5)"
    }
  ],
  "samplers": [
    {},
    {
      "minFilter": 9987
    }
  ],
  "scene": 0,
  "scenes": [
    {
      "nodes": [
        0
      ],
      "name": "CarelNguy"
    }
  ],
  "textures": [
    {
      "sampler": 0,
      "source": 0,
      "name": "GroundTexture"
    },
    {
      "sampler": 0,
      "source": 1,
      "name": "MetalPlates_Normal06"
    },
    {
      "sampler": 1,
      "source": 2,
      "name": "MetalPlates_Metalness"
    },
    {
      "sampler": 0,
      "source": 3,
      "name": "PodBaseTexture"
    }
  ]
}